<svg version="1.1" viewBox="0.0 0.0 144.0 96.0" fill="none" stroke="none" stroke-linecap="square" stroke-miterlimit="10" xmlns:xlink="http://www.w3.org/1999/xlink" xmlns="http://www.w3.org/2000/svg"><clipPath id="p.0"><path d="m0 0l144.0 0l0 96.0l-144.0 0l0 -96.0z" clip-rule="nonzero"/></clipPath><g clip-path="url(#p.0)"><path fill="#000000" fill-opacity="0.0" d="m0 0l144.0 0l0 96.0l-144.0 0z" fill-rule="evenodd"/><path fill="#000000" fill-opacity="0.0" d="m7.8267717 -2.8976378l135.68504 0l0 42.015747l-135.68504 0z" fill-rule="evenodd"/><path fill="#000000" d="m19.528664 29.142363l4.578125 0q1.140625 0 2.140625 -0.28125q1.0 -0.28125 1.828125 -0.8125q0.71875 -0.4375 1.3125 -1.09375q0.609375 -0.671875 1.046875 -1.453125q0.46875 -0.890625 0.71875 -1.9375q0.265625 -1.0625 0.265625 -2.234375l0 -1.40625q0 -1.234375 -0.28125 -2.328125q-0.265625 -1.09375 -0.765625 -1.984374q-0.4375 -0.75 -1.015625 -1.375q-0.578125 -0.625 -1.328125 -1.0625q-0.84375 -0.515625 -1.875 -0.796875q-1.03125 -0.296875 -2.203125 -0.296875l-4.421875 0l0 17.0625zm3.3125 -14.390624l1.109375 0q0.59375 0 1.09375 0.140625q0.515625 0.125 0.9375 0.375q0.546875 0.328125 0.96875 0.84374905q0.421875 0.515625 0.671875 1.171875q0.21875 0.546875 0.328125 1.21875q0.109375 0.65625 0.109375 1.390625l0 1.4375q0 0.78125 -0.109375 1.453125q-0.109375 0.671875 -0.328125 1.21875q-0.25 0.640625 -0.609375 1.125q-0.359375 0.46875 -0.8125 0.765625q-0.421875 0.296875 -0.953125 0.453125q-0.53125 0.140625 -1.140625 0.140625l-1.265625 0l0 -11.734374zm11.886719 -2.671875l0 2.65625l3.25 0l0 11.749999l-3.25 0l0 2.65625l9.859375 0l0 -2.65625l-3.328125 0l0 -11.749999l3.328125 0l0 -2.65625l-9.859375 0zm22.527344 12.609374q0 0.453125 -0.1875 0.84375q-0.1875 0.375 -0.53125 0.640625q-0.359375 0.265625 -0.875 0.421875q-0.5 0.15625 -1.15625 0.15625q-0.734375 0 -1.359375 -0.15625q-0.609375 -0.171875 -1.046875 -0.53125q-0.4375 -0.34375 -0.6875 -0.890625q-0.25 -0.5625 -0.265625 -1.328125l-3.234375 0q0 1.328125 0.5 2.3125q0.515625 0.984375 1.390625 1.703125q0.9375 0.734375 2.171875 1.125q1.25 0.375 2.53125 0.375q1.296875 0 2.390625 -0.3125q1.109375 -0.3125 1.90625 -0.921875q0.796875 -0.59375 1.25 -1.46875q0.453125 -0.875 0.453125 -2.0q0 -1.296875 -0.59375 -2.28125q-0.59375 -1.0 -1.609375 -1.75q-0.671875 -0.46875 -1.46875 -0.8125q-0.796875 -0.359375 -1.671875 -0.59375q-0.8125 -0.234375 -1.46875 -0.484375q-0.65625 -0.265625 -1.109375 -0.578125q-0.453125 -0.296875 -0.703125 -0.6875q-0.234375 -0.390625 -0.234375 -0.875q0 -0.453125 0.171875 -0.84374905q0.1875 -0.390625 0.546875 -0.6875q0.34375 -0.28125 0.859375 -0.4375q0.515625 -0.15625 1.171875 -0.15625q0.703125 0 1.234375 0.203125q0.546875 0.1875 0.90625 0.515625q0.34375 0.359375 0.53125 0.84374905q0.1875 0.46875 0.203125 1.046875l3.21875 0q0 -1.140624 -0.453125 -2.093749q-0.4375 -0.96875 -1.234375 -1.671875q-0.796875 -0.703125 -1.90625 -1.078125q-1.109375 -0.390625 -2.453125 -0.390625q-1.28125 0 -2.390625 0.34375q-1.09375 0.328125 -1.90625 0.9375q-0.8125 0.625 -1.265625 1.515625q-0.453125 0.875 -0.453125 1.953124q0 0.9375 0.34375 1.734375q0.34375 0.796875 1.03125 1.453125q0.671875 0.65625 1.734375 1.203125q1.078125 0.546875 2.5 0.9375q0.921875 0.25 1.53125 0.53125q0.609375 0.28125 1.0 0.625q0.375 0.359375 0.53125 0.765625q0.15625 0.390625 0.15625 0.84375zm13.933594 0.890625l1.0 3.5625l3.46875 0l-5.484375 -17.0625l-2.984375 0l-5.59375 17.0625l3.46875 0l1.015625 -3.5625l5.109375 0zm-4.3125 -2.796875l1.796875 -6.28125l1.75 6.28125l-3.546875 0zm19.183594 1.90625q0 0.453125 -0.1875 0.84375q-0.1875 0.375 -0.53125 0.640625q-0.359375 0.265625 -0.875 0.421875q-0.5 0.15625 -1.15625 0.15625q-0.734375 0 -1.359375 -0.15625q-0.609375 -0.171875 -1.046875 -0.53125q-0.4375 -0.34375 -0.6875 -0.890625q-0.25 -0.5625 -0.265625 -1.328125l-3.234375 0q0 1.328125 0.5 2.3125q0.515625 0.984375 1.390625 1.703125q0.9375 0.734375 2.171875 1.125q1.25 0.375 2.53125 0.375q1.296875 0 2.390625 -0.3125q1.109375 -0.3125 1.90625 -0.921875q0.796875 -0.59375 1.25 -1.46875q0.453125 -0.875 0.453125 -2.0q0 -1.296875 -0.59375 -2.28125q-0.59375 -1.0 -1.609375 -1.75q-0.671875 -0.46875 -1.46875 -0.8125q-0.796875 -0.359375 -1.671875 -0.59375q-0.8125 -0.234375 -1.46875 -0.484375q-0.65625 -0.265625 -1.109375 -0.578125q-0.453125 -0.296875 -0.703125 -0.6875q-0.234375 -0.390625 -0.234375 -0.875q0 -0.453125 0.171875 -0.84374905q0.1875 -0.390625 0.546875 -0.6875q0.34375 -0.28125 0.859375 -0.4375q0.515625 -0.15625 1.171875 -0.15625q0.703125 0 1.234375 0.203125q0.546875 0.1875 0.90625 0.515625q0.34375 0.359375 0.53125 0.84374905q0.1875 0.46875 0.203125 1.046875l3.21875 0q0 -1.140624 -0.453125 -2.093749q-0.4375 -0.96875 -1.234375 -1.671875q-0.796875 -0.703125 -1.90625 -1.078125q-1.109375 -0.390625 -2.453125 -0.390625q-1.28125 0 -2.390625 0.34375q-1.09375 0.328125 -1.90625 0.9375q-0.8125 0.625 -1.265625 1.515625q-0.453125 0.875 -0.453125 1.953124q0 0.9375 0.34375 1.734375q0.34375 0.796875 1.03125 1.453125q0.671875 0.65625 1.734375 1.203125q1.078125 0.546875 2.5 0.9375q0.921875 0.25 1.53125 0.53125q0.609375 0.28125 1.0 0.625q0.375 0.359375 0.53125 0.765625q0.15625 0.390625 0.15625 0.84375zm18.089844 -9.921874l0 -2.6875l-13.765625 0l0 2.6875l5.203125 0l0 14.374999l3.296875 0l0 -14.374999l5.265625 0zm12.355469 6.890624l0 -2.59375l-7.0 0l0 -4.296874l8.15625 0l0 -2.6875l-11.46875 0l0 17.0625l11.5 0l0 -2.65625l-8.1875 0l0 -4.828125l7.0 0zm9.699219 1.109375l3.2031174 6.375l3.53125 0l0 -0.15625l-3.671875 -7.046875q0.703125 -0.3125 1.265625 -0.734375q0.578125 -0.4375 0.984375 -1.03125q0.40625 -0.578125 0.625 -1.296875q0.21875 -0.734375 0.21875 -1.65625q0 -1.265624 -0.453125 -2.218749q-0.4375 -0.96875 -1.234375 -1.609375q-0.828125 -0.640625 -1.984375 -0.96875q-1.1406174 -0.34375 -2.5624924 -0.34375l-5.71875 0l0 17.0625l3.296875 0l0 -6.375l2.5 0zm-2.5 -2.671875l0 -5.343749l2.421875 0q0.6875 0 1.203125 0.171875q0.53125 0.15625 0.9062424 0.453125q0.40625 0.34375 0.609375 0.87499905q0.203125 0.515625 0.203125 1.1875q0 0.5625 -0.15625 1.03125q-0.15625 0.453125 -0.46875 0.78125q-0.359375 0.40625 -0.9374924 0.625q-0.578125 0.21875 -1.34375 0.21875l-2.4375 0z" fill-rule="nonzero"/><path fill="#000000" fill-opacity="0.0" d="m7.8267717 22.102362l135.68504 0l0 45.259842l-135.68504 0z" fill-rule="evenodd"/><path fill="#000000" d="m27.30832 47.62924q0 0.40625 -0.171875 0.75q-0.15625 0.328125 -0.46875 0.5625q-0.3125 0.25 -0.765625 0.390625q-0.453125 0.125 -1.03125 0.125q-0.65625 0 -1.203125 -0.140625q-0.546875 -0.15625 -0.9375 -0.46875q-0.390625 -0.3125 -0.609375 -0.796875q-0.21875 -0.484375 -0.25 -1.171875l-2.875 0q0 1.171875 0.453125 2.046875q0.453125 0.875 1.234375 1.515625q0.828125 0.65625 1.9375 1.0q1.109375 0.34375 2.25 0.34375q1.15625 0 2.125 -0.28125q0.984375 -0.28125 1.6875 -0.8125q0.703125 -0.53125 1.109375 -1.3125q0.40625 -0.78125 0.40625 -1.78125q0 -1.15625 -0.53125 -2.03125q-0.53125 -0.890625 -1.421875 -1.5625q-0.59375 -0.40625 -1.3125 -0.71875q-0.703125 -0.3125 -1.484375 -0.53125q-0.734375 -0.1875 -1.3125 -0.421875q-0.578125 -0.234375 -0.984375 -0.515625q-0.40625 -0.265625 -0.625 -0.609375q-0.203125 -0.34375 -0.203125 -0.765625q0 -0.40625 0.15625 -0.75q0.171875 -0.359375 0.484375 -0.609375q0.3125 -0.25 0.765625 -0.390625q0.453125 -0.140625 1.03125 -0.140625q0.640625 0 1.109375 0.171875q0.46875 0.171875 0.796875 0.46875q0.3125 0.3125 0.46875 0.75q0.171875 0.421875 0.1875 0.921875l2.84375 0q0 -1.015625 -0.390625 -1.859375q-0.390625 -0.859375 -1.09375 -1.484375q-0.71875 -0.625 -1.703125 -0.96875q-0.984375 -0.34375 -2.171875 -0.34375q-1.140625 0 -2.125 0.296875q-0.96875 0.296875 -1.6875 0.859375q-0.71875 0.546875 -1.125 1.328125q-0.40625 0.78125 -0.40625 1.734375q0 0.828125 0.296875 1.546875q0.3125 0.703125 0.921875 1.28125q0.59375 0.59375 1.546875 1.078125q0.953125 0.484375 2.21875 0.828125q0.8125 0.21875 1.359375 0.484375q0.546875 0.25 0.890625 0.546875q0.328125 0.3125 0.46875 0.671875q0.140625 0.359375 0.140625 0.765625zm15.50209 -2.515625l0 -2.203125q0 -1.03125 -0.1875 -1.9375q-0.1875 -0.921875 -0.5625 -1.703125q-0.328125 -0.671875 -0.796875 -1.234375q-0.453125 -0.5625 -1.0625 -0.953125q-0.625 -0.421875 -1.390625 -0.640625q-0.765625 -0.234375 -1.640625 -0.234375q-0.859375 0 -1.609375 0.21875q-0.734375 0.21875 -1.328125 0.625q-0.59375 0.421875 -1.0625 1.015625q-0.46875 0.578125 -0.78125 1.296875q-0.34375 0.75 -0.515625 1.65625q-0.171875 0.890625 -0.171875 1.890625l0 2.203125q0 0.9375 0.15625 1.78125q0.15625 0.84375 0.4375 1.5625q0.328125 0.78125 0.796875 1.40625q0.484375 0.609375 1.09375 1.046875q0.609375 0.421875 1.359375 0.65625q0.75 0.21875 1.640625 0.21875q0.828125 0 1.546875 -0.203125q0.734375 -0.203125 1.34375 -0.5625q0.65625 -0.421875 1.171875 -1.046875q0.53125 -0.625 0.875 -1.375q0.34375 -0.75 0.515625 -1.625q0.171875 -0.875 0.171875 -1.859375zm-2.953125 -2.234375l0 2.234375q0 0.5625 -0.0625 1.09375q-0.0625 0.515625 -0.171875 0.953125q-0.140625 0.5625 -0.390625 1.0q-0.25 0.4375 -0.59375 0.734375q-0.28125 0.234375 -0.65625 0.359375q-0.359375 0.125 -0.796875 0.125q-0.453125 0 -0.8125 -0.125q-0.359375 -0.140625 -0.640625 -0.390625q-0.3125 -0.28125 -0.53125 -0.734375q-0.21875 -0.453125 -0.34375 -1.0q-0.09375 -0.4375 -0.140625 -0.953125q-0.046875 -0.515625 -0.046875 -1.0625l0 -2.234375q0 -0.578125 0.046875 -1.109375q0.046875 -0.53125 0.15625 -0.96875q0.140625 -0.59375 0.375 -1.03125q0.25 -0.4375 0.609375 -0.71875q0.25 -0.203125 0.578125 -0.296875q0.328125 -0.109375 0.734375 -0.109375q0.4375 0 0.78125 0.109375q0.34375 0.109375 0.625 0.328125q0.359375 0.28125 0.609375 0.71875q0.265625 0.4375 0.421875 1.0q0.125 0.453125 0.1875 0.984375q0.0625 0.515625 0.0625 1.09375zm8.31459 6.34375l0 -12.796875l-2.9375 0l0 15.15625l10.03125 0l0 -2.359375l-7.09375 0zm19.767715 -12.796875l-2.90625 0l-0.015625 10.046875q0 0.734375 -0.15625 1.296875q-0.140625 0.5625 -0.4375 0.9375q-0.265625 0.359375 -0.6875 0.546875q-0.40625 0.1875 -0.9375 0.1875q-0.484375 0 -0.859375 -0.171875q-0.375 -0.171875 -0.640625 -0.515625q-0.28125 -0.375 -0.421875 -0.953125q-0.140625 -0.578125 -0.140625 -1.328125l-0.015625 -10.046875l-2.921875 0l-0.015625 10.046875q0 1.265625 0.359375 2.265625q0.359375 0.984375 1.015625 1.671875q0.65625 0.671875 1.578125 1.03125q0.921875 0.34375 2.0625 0.34375q1.21875 0 2.171875 -0.34375q0.953125 -0.359375 1.625 -1.046875q0.65625 -0.671875 1.0 -1.65625q0.34375 -1.0 0.34375 -2.265625l0 -10.046875zm13.830223 2.375l0 -2.375l-12.218758 0l0 2.375l4.6093826 0l0 12.78125l2.9375 0l0 -12.78125l4.671875 0zm2.3145905 -2.375l0 2.359375l2.875 0l0 10.4375l-2.875 0l0 2.359375l8.765625 0l0 -2.359375l-2.953125 0l0 -10.4375l2.953125 0l0 -2.359375l-8.765625 0zm22.72084 8.6875l0 -2.203125q0 -1.03125 -0.1875 -1.9375q-0.1875 -0.921875 -0.5625 -1.703125q-0.328125 -0.671875 -0.796875 -1.234375q-0.453125 -0.5625 -1.0625 -0.953125q-0.625 -0.421875 -1.390625 -0.640625q-0.765625 -0.234375 -1.640625 -0.234375q-0.859375 0 -1.609375 0.21875q-0.734375 0.21875 -1.328125 0.625q-0.59375 0.421875 -1.0625 1.015625q-0.46875 0.578125 -0.78125 1.296875q-0.34375 0.75 -0.515625 1.65625q-0.171875 0.890625 -0.171875 1.890625l0 2.203125q0 0.9375 0.15625 1.78125q0.15625 0.84375 0.4375 1.5625q0.328125 0.78125 0.796875 1.40625q0.484375 0.609375 1.09375 1.046875q0.609375 0.421875 1.359375 0.65625q0.75 0.21875 1.640625 0.21875q0.828125 0 1.546875 -0.203125q0.734375 -0.203125 1.34375 -0.5625q0.65625 -0.421875 1.171875 -1.046875q0.53125 -0.625 0.875 -1.375q0.34375 -0.75 0.515625 -1.625q0.171875 -0.875 0.171875 -1.859375zm-2.953125 -2.234375l0 2.234375q0 0.5625 -0.0625 1.09375q-0.0625 0.515625 -0.171875 0.953125q-0.140625 0.5625 -0.390625 1.0q-0.25 0.4375 -0.59375 0.734375q-0.28125 0.234375 -0.65625 0.359375q-0.359375 0.125 -0.796875 0.125q-0.453125 0 -0.8125 -0.125q-0.359375 -0.140625 -0.640625 -0.390625q-0.3125 -0.28125 -0.53125 -0.734375q-0.21875 -0.453125 -0.34375 -1.0q-0.09375 -0.4375 -0.140625 -0.953125q-0.046875 -0.515625 -0.046875 -1.0625l0 -2.234375q0 -0.578125 0.046875 -1.109375q0.046875 -0.53125 0.15625 -0.96875q0.140625 -0.59375 0.375 -1.03125q0.25 -0.4375 0.609375 -0.71875q0.25 -0.203125 0.578125 -0.296875q0.328125 -0.109375 0.734375 -0.109375q0.4375 0 0.78125 0.109375q0.34375 0.109375 0.625 0.328125q0.359375 0.28125 0.609375 0.71875q0.265625 0.4375 0.421875 1.0q0.125 0.453125 0.1875 0.984375q0.0625 0.515625 0.0625 1.09375zm15.173965 8.703125l0 -15.15625l-2.9375 0l0 9.734375l-4.1875 -9.734375l-2.953125 0l0 15.15625l2.953125 0l0 -9.78125l4.21875 9.78125l2.90625 0zm10.673958 -3.953125q0 0.40625 -0.171875 0.75q-0.15625 0.328125 -0.46875 0.5625q-0.3125 0.25 -0.765625 0.390625q-0.45311737 0.125 -1.0312424 0.125q-0.65625 0 -1.203125 -0.140625q-0.546875 -0.15625 -0.9375 -0.46875q-0.390625 -0.3125 -0.609375 -0.796875q-0.21875 -0.484375 -0.25 -1.171875l-2.875 0q0 1.171875 0.453125 2.046875q0.453125 0.875 1.234375 1.515625q0.828125 0.65625 1.9375 1.0q1.109375 0.34375 2.25 0.34375q1.1562424 0 2.1249924 -0.28125q0.984375 -0.28125 1.6875 -0.8125q0.703125 -0.53125 1.109375 -1.3125q0.40625 -0.78125 0.40625 -1.78125q0 -1.15625 -0.53125 -2.03125q-0.53125 -0.890625 -1.421875 -1.5625q-0.59375 -0.40625 -1.3125 -0.71875q-0.703125 -0.3125 -1.4843674 -0.53125q-0.734375 -0.1875 -1.3125 -0.421875q-0.578125 -0.234375 -0.984375 -0.515625q-0.40625 -0.265625 -0.625 -0.609375q-0.203125 -0.34375 -0.203125 -0.765625q0 -0.40625 0.15625 -0.75q0.171875 -0.359375 0.484375 -0.609375q0.3125 -0.25 0.765625 -0.390625q0.453125 -0.140625 1.03125 -0.140625q0.640625 0 1.1093674 0.171875q0.46875 0.171875 0.796875 0.46875q0.3125 0.3125 0.46875 0.75q0.171875 0.421875 0.1875 0.921875l2.84375 0q0 -1.015625 -0.390625 -1.859375q-0.390625 -0.859375 -1.09375 -1.484375q-0.71875 -0.625 -1.703125 -0.96875q-0.984375 -0.34375 -2.1718674 -0.34375q-1.140625 0 -2.125 0.296875q-0.96875 0.296875 -1.6875 0.859375q-0.71875 0.546875 -1.125 1.328125q-0.40625 0.78125 -0.40625 1.734375q0 0.828125 0.296875 1.546875q0.3125 0.703125 0.921875 1.28125q0.59375 0.59375 1.546875 1.078125q0.953125 0.484375 2.21875 0.828125q0.8125 0.21875 1.3593674 0.484375q0.546875 0.25 0.890625 0.546875q0.328125 0.3125 0.46875 0.671875q0.140625 0.359375 0.140625 0.765625z" fill-rule="nonzero"/><path fill="#000000" fill-opacity="0.0" d="m0.48818898 39.11811l143.02362 0l0 59.779526l-143.02362 0z" fill-rule="evenodd"/><path fill="#000000" d="m19.124588 77.64936q0 1.1875 0.78125 2.0q0.796875 0.796875 2.1875 0.796875q1.375 0 2.171875 -0.796875q0.8125 -0.796875 0.8125 -2.0q0 -1.21875 -0.796875 -2.046875q-0.78125 -0.828125 -2.1875 -0.828125q-1.421875 0 -2.203125 0.84375q-0.765625 0.828125 -0.765625 2.03125zm16.640762 2.46875l3.921875 0l2.15625 -13.640625l0.1875 -1.171875l0.171875 1.171875l2.25 13.640625l3.90625 0l3.203125 -23.6875l-3.921875 0l-1.625 13.90625l-0.125 1.0l-0.140625 -0.984375l-2.171875 -13.921875l-3.125 0l-2.09375 13.84375l-0.15625 0.96875l-0.09375 -0.921875l-1.625 -13.890625l-3.90625 0l3.1875 23.6875zm34.812637 -10.1875l0 -3.28125q-0.015625 -1.546875 -0.296875 -2.9375q-0.265625 -1.40625 -0.796875 -2.625q-0.515625 -1.078125 -1.234375 -2.0q-0.703125 -0.921875 -1.65625 -1.578125q-0.9375 -0.65625 -2.140625 -1.03125q-1.1875 -0.375 -2.578125 -0.375q-1.375 0 -2.53125 0.375q-1.15625 0.359375 -2.09375 1.015625q-0.9375 0.6875 -1.65625 1.625q-0.703125 0.9375 -1.1875 2.078125q-0.5 1.1875 -0.75 2.578125q-0.25 1.375 -0.265625 2.875l0 3.28125q0.015625 1.4375 0.234375 2.75q0.234375 1.296875 0.6875 2.4375q0.484375 1.21875 1.21875 2.203125q0.734375 0.984375 1.65625 1.6875q0.96875 0.6875 2.140625 1.0625q1.171875 0.375 2.5625 0.375q1.34375 0 2.46875 -0.34375q1.140625 -0.34375 2.09375 -0.953125q1.0 -0.6875 1.78125 -1.671875q0.78125 -0.984375 1.3125 -2.171875q0.5 -1.171875 0.75 -2.53125q0.265625 -1.359375 0.28125 -2.84375zm-4.296875 -3.3125l0 3.3125q0 0.875 -0.09375 1.71875q-0.078125 0.84375 -0.28125 1.546875q-0.21875 0.90625 -0.609375 1.625q-0.375 0.703125 -0.921875 1.203125q-0.484375 0.4375 -1.109375 0.671875q-0.609375 0.21875 -1.375 0.21875q-0.796875 0 -1.40625 -0.234375q-0.609375 -0.25 -1.0625 -0.703125q-0.5 -0.46875 -0.859375 -1.203125q-0.359375 -0.75 -0.5625 -1.609375q-0.171875 -0.734375 -0.25 -1.546875q-0.078125 -0.828125 -0.078125 -1.6875l0 -3.3125q0 -0.90625 0.078125 -1.75q0.09375 -0.84375 0.265625 -1.59375q0.21875 -0.90625 0.59375 -1.625q0.390625 -0.71875 0.953125 -1.203125q0.4375 -0.375 1.0 -0.578125q0.578125 -0.203125 1.3125 -0.203125q0.75 0 1.34375 0.21875q0.59375 0.21875 1.0625 0.59375q0.578125 0.484375 0.96875 1.203125q0.40625 0.71875 0.640625 1.59375q0.21875 0.75 0.296875 1.59375q0.09375 0.84375 0.09375 1.75zm16.000137 4.484375l4.5 9.015625l4.53125 0l0 -0.21875l-5.078125 -9.84375q0.984375 -0.4375 1.765625 -1.03125q0.796875 -0.609375 1.375 -1.421875q0.5625 -0.78125 0.859375 -1.78125q0.3125 -1.015625 0.3125 -2.25q0 -1.78125 -0.609375 -3.109375q-0.609375 -1.34375 -1.734375 -2.21875q-1.140625 -0.890625 -2.703125 -1.34375q-1.5625 -0.46875 -3.453125 -0.46875l-7.75 0l0 23.6875l4.25 0l0 -9.015625l3.734375 0zm-3.734375 -3.46875l0 -7.765625l3.5 0q0.96875 0 1.734375 0.25q0.765625 0.25 1.3125 0.703125q0.59375 0.484375 0.890625 1.25q0.296875 0.75 0.296875 1.71875q0 0.859375 -0.25 1.53125q-0.25 0.671875 -0.71875 1.140625q-0.546875 0.578125 -1.375 0.875q-0.828125 0.296875 -1.859375 0.296875l-3.53125 0zm22.500137 2.5l6.140625 9.984375l5.0625 0l-8.390625 -13.234375l8.046875 -10.453125l-5.1875 0l-6.03125 8.109375l-2.15625 2.890625l0 -11.0l-4.28125 0l0 23.6875l4.28125 0l0 -7.1875l2.515625 -2.796875zm25.547012 3.84375q0 0.703125 -0.296875 1.28125q-0.28125 0.5625 -0.8125 0.953125q-0.53125 0.390625 -1.265625 0.609375q-0.734375 0.203125 -1.640625 0.203125q-1.046875 0 -1.921875 -0.234375q-0.859375 -0.25 -1.5 -0.75q-0.625 -0.53125 -1.0 -1.3125q-0.359375 -0.78125 -0.40625 -1.84375l-4.203125 0q0.015625 1.765625 0.703125 3.109375q0.703125 1.34375 1.890625 2.328125q1.265625 1.03125 2.96875 1.578125q1.703125 0.53125 3.46875 0.53125q1.71875 0 3.21875 -0.421875q1.515625 -0.421875 2.625 -1.25q1.125 -0.84375 1.765625 -2.046875q0.640625 -1.203125 0.640625 -2.765625q0 -1.765625 -0.796875 -3.109375q-0.796875 -1.34375 -2.125 -2.34375q-0.96875 -0.6875 -2.125 -1.1875q-1.140625 -0.515625 -2.390625 -0.875q-1.0625 -0.296875 -1.96875 -0.640625q-0.890625 -0.34375 -1.5625 -0.8125q-0.671875 -0.421875 -1.046875 -1.0q-0.359375 -0.578125 -0.359375 -1.328125q0 -0.6875 0.28125 -1.265625q0.28125 -0.578125 0.796875 -1.0q0.53125 -0.40625 1.25 -0.640625q0.734375 -0.234375 1.640625 -0.234375q1.0 0 1.765625 0.296875q0.765625 0.28125 1.296875 0.78125q0.515625 0.5 0.796875 1.203125q0.28125 0.703125 0.328125 1.546875l4.171875 0q0 -1.59375 -0.625 -2.921875q-0.625 -1.34375 -1.734375 -2.296875q-1.109375 -0.96875 -2.640625 -1.484375q-1.515625 -0.53125 -3.296875 -0.53125q-1.71875 0 -3.21875 0.453125q-1.484375 0.453125 -2.59375 1.3125q-1.125 0.84375 -1.765625 2.078125q-0.640625 1.21875 -0.640625 2.703125q0 1.359375 0.515625 2.484375q0.515625 1.109375 1.5 2.0q0.953125 0.890625 2.40625 1.625q1.453125 0.71875 3.265625 1.21875q1.1875 0.328125 2.0625 0.71875q0.875 0.390625 1.453125 0.859375q0.578125 0.5 0.84375 1.09375q0.28125 0.59375 0.28125 1.328125z" fill-rule="nonzero"/></g></svg>